<mxfile host="app.diagrams.net" modified="2022-08-19T13:28:46.338Z" agent="5.0 (Macintosh; Intel Mac OS X 10_15_7) AppleWebKit/537.36 (KHTML, like Gecko) Chrome/104.0.0.0 Safari/537.36" etag="nBn6baSJcgo8yXlDMv2T" version="20.2.5" type="github">
  <diagram id="nqXrsxQhoWCwrVjzQAjv" name="Page-1">
    <mxGraphModel dx="1357" dy="843" grid="1" gridSize="10" guides="1" tooltips="1" connect="1" arrows="1" fold="1" page="1" pageScale="1" pageWidth="850" pageHeight="1100" math="0" shadow="0">
      <root>
        <mxCell id="0" />
        <mxCell id="1" parent="0" />
        <mxCell id="IPqOJJyZI5L9GblSzHMc-1" value="HTML DOM" style="text;html=1;strokeColor=none;fillColor=none;align=center;verticalAlign=middle;whiteSpace=wrap;rounded=0;fontSize=18;fontStyle=1" vertex="1" parent="1">
          <mxGeometry x="140" y="40" width="130" height="60" as="geometry" />
        </mxCell>
        <mxCell id="IPqOJJyZI5L9GblSzHMc-2" value="ReactJS Components" style="text;html=1;strokeColor=none;fillColor=none;align=center;verticalAlign=middle;whiteSpace=wrap;rounded=0;fontSize=18;fontStyle=1" vertex="1" parent="1">
          <mxGeometry x="550" y="40" width="130" height="60" as="geometry" />
        </mxCell>
        <mxCell id="IPqOJJyZI5L9GblSzHMc-12" style="edgeStyle=orthogonalEdgeStyle;rounded=0;orthogonalLoop=1;jettySize=auto;html=1;exitX=0.5;exitY=1;exitDx=0;exitDy=0;entryX=0.5;entryY=0;entryDx=0;entryDy=0;fontSize=18;" edge="1" parent="1" source="IPqOJJyZI5L9GblSzHMc-3" target="IPqOJJyZI5L9GblSzHMc-4">
          <mxGeometry relative="1" as="geometry" />
        </mxCell>
        <mxCell id="IPqOJJyZI5L9GblSzHMc-19" style="edgeStyle=orthogonalEdgeStyle;rounded=0;orthogonalLoop=1;jettySize=auto;html=1;exitX=0.5;exitY=1;exitDx=0;exitDy=0;fontSize=18;" edge="1" parent="1" source="IPqOJJyZI5L9GblSzHMc-3" target="IPqOJJyZI5L9GblSzHMc-5">
          <mxGeometry relative="1" as="geometry" />
        </mxCell>
        <mxCell id="IPqOJJyZI5L9GblSzHMc-3" value="&amp;lt;BookStore&amp;gt;" style="rounded=0;whiteSpace=wrap;html=1;fontSize=18;" vertex="1" parent="1">
          <mxGeometry x="555" y="130" width="120" height="60" as="geometry" />
        </mxCell>
        <mxCell id="IPqOJJyZI5L9GblSzHMc-13" style="edgeStyle=orthogonalEdgeStyle;rounded=0;orthogonalLoop=1;jettySize=auto;html=1;exitX=0.5;exitY=1;exitDx=0;exitDy=0;entryX=0.429;entryY=0;entryDx=0;entryDy=0;entryPerimeter=0;fontSize=18;" edge="1" parent="1" source="IPqOJJyZI5L9GblSzHMc-4" target="IPqOJJyZI5L9GblSzHMc-6">
          <mxGeometry relative="1" as="geometry" />
        </mxCell>
        <mxCell id="IPqOJJyZI5L9GblSzHMc-14" style="edgeStyle=orthogonalEdgeStyle;rounded=0;orthogonalLoop=1;jettySize=auto;html=1;exitX=0.5;exitY=1;exitDx=0;exitDy=0;entryX=0.5;entryY=0;entryDx=0;entryDy=0;fontSize=18;" edge="1" parent="1" source="IPqOJJyZI5L9GblSzHMc-4" target="IPqOJJyZI5L9GblSzHMc-7">
          <mxGeometry relative="1" as="geometry" />
        </mxCell>
        <mxCell id="IPqOJJyZI5L9GblSzHMc-4" value="&amp;lt;Catalog&amp;gt;" style="rounded=0;whiteSpace=wrap;html=1;fontSize=18;" vertex="1" parent="1">
          <mxGeometry x="440" y="230" width="120" height="60" as="geometry" />
        </mxCell>
        <mxCell id="IPqOJJyZI5L9GblSzHMc-5" value="&amp;lt;ShoppingCart&amp;gt;" style="rounded=0;whiteSpace=wrap;html=1;fontSize=18;" vertex="1" parent="1">
          <mxGeometry x="650" y="230" width="160" height="60" as="geometry" />
        </mxCell>
        <mxCell id="IPqOJJyZI5L9GblSzHMc-17" style="edgeStyle=orthogonalEdgeStyle;rounded=0;orthogonalLoop=1;jettySize=auto;html=1;exitX=0.5;exitY=1;exitDx=0;exitDy=0;entryX=0.5;entryY=0;entryDx=0;entryDy=0;fontSize=18;" edge="1" parent="1" source="IPqOJJyZI5L9GblSzHMc-6" target="IPqOJJyZI5L9GblSzHMc-8">
          <mxGeometry relative="1" as="geometry" />
        </mxCell>
        <mxCell id="IPqOJJyZI5L9GblSzHMc-18" style="edgeStyle=orthogonalEdgeStyle;rounded=0;orthogonalLoop=1;jettySize=auto;html=1;exitX=0.5;exitY=1;exitDx=0;exitDy=0;entryX=0.575;entryY=-0.05;entryDx=0;entryDy=0;entryPerimeter=0;fontSize=18;" edge="1" parent="1" source="IPqOJJyZI5L9GblSzHMc-6" target="IPqOJJyZI5L9GblSzHMc-9">
          <mxGeometry relative="1" as="geometry" />
        </mxCell>
        <mxCell id="IPqOJJyZI5L9GblSzHMc-6" value="&amp;lt;ProductGrid&amp;gt;" style="rounded=0;whiteSpace=wrap;html=1;fontSize=18;" vertex="1" parent="1">
          <mxGeometry x="360" y="330" width="140" height="60" as="geometry" />
        </mxCell>
        <mxCell id="IPqOJJyZI5L9GblSzHMc-7" value="&amp;lt;WishList&amp;gt;" style="rounded=0;whiteSpace=wrap;html=1;fontSize=18;" vertex="1" parent="1">
          <mxGeometry x="540" y="330" width="120" height="60" as="geometry" />
        </mxCell>
        <mxCell id="IPqOJJyZI5L9GblSzHMc-20" style="edgeStyle=orthogonalEdgeStyle;rounded=0;orthogonalLoop=1;jettySize=auto;html=1;exitX=0.5;exitY=1;exitDx=0;exitDy=0;entryX=0.5;entryY=0;entryDx=0;entryDy=0;fontSize=18;" edge="1" parent="1" source="IPqOJJyZI5L9GblSzHMc-8" target="IPqOJJyZI5L9GblSzHMc-10">
          <mxGeometry relative="1" as="geometry" />
        </mxCell>
        <mxCell id="IPqOJJyZI5L9GblSzHMc-21" style="edgeStyle=orthogonalEdgeStyle;rounded=0;orthogonalLoop=1;jettySize=auto;html=1;exitX=0.5;exitY=1;exitDx=0;exitDy=0;fontSize=18;" edge="1" parent="1" source="IPqOJJyZI5L9GblSzHMc-8" target="IPqOJJyZI5L9GblSzHMc-11">
          <mxGeometry relative="1" as="geometry" />
        </mxCell>
        <mxCell id="IPqOJJyZI5L9GblSzHMc-8" value="&amp;lt;Product&amp;gt;" style="rounded=0;whiteSpace=wrap;html=1;fontSize=18;" vertex="1" parent="1">
          <mxGeometry x="280" y="430" width="120" height="60" as="geometry" />
        </mxCell>
        <mxCell id="IPqOJJyZI5L9GblSzHMc-9" value="&amp;lt;Product&amp;gt;" style="rounded=0;whiteSpace=wrap;html=1;fontSize=18;" vertex="1" parent="1">
          <mxGeometry x="450" y="430" width="120" height="60" as="geometry" />
        </mxCell>
        <mxCell id="IPqOJJyZI5L9GblSzHMc-24" style="edgeStyle=orthogonalEdgeStyle;rounded=0;orthogonalLoop=1;jettySize=auto;html=1;exitX=0;exitY=0.5;exitDx=0;exitDy=0;fontSize=18;entryX=0;entryY=0.5;entryDx=0;entryDy=0;" edge="1" parent="1" source="IPqOJJyZI5L9GblSzHMc-10" target="IPqOJJyZI5L9GblSzHMc-25">
          <mxGeometry relative="1" as="geometry">
            <mxPoint x="60" y="150" as="targetPoint" />
          </mxGeometry>
        </mxCell>
        <mxCell id="IPqOJJyZI5L9GblSzHMc-10" value="&amp;lt;ProductImage&amp;gt;" style="rounded=0;whiteSpace=wrap;html=1;fontSize=18;labelBackgroundColor=default;fillColor=#E6E6E6;" vertex="1" parent="1">
          <mxGeometry x="210" y="540" width="160" height="60" as="geometry" />
        </mxCell>
        <mxCell id="IPqOJJyZI5L9GblSzHMc-11" value="&amp;lt;ProductData&amp;gt;" style="rounded=0;whiteSpace=wrap;html=1;fontSize=18;" vertex="1" parent="1">
          <mxGeometry x="380" y="540" width="140" height="60" as="geometry" />
        </mxCell>
        <mxCell id="IPqOJJyZI5L9GblSzHMc-25" value="" style="rounded=0;whiteSpace=wrap;html=1;fontSize=18;fillColor=#E6E6E6;" vertex="1" parent="1">
          <mxGeometry x="70" y="105" width="250" height="290" as="geometry" />
        </mxCell>
        <mxCell id="IPqOJJyZI5L9GblSzHMc-30" style="edgeStyle=orthogonalEdgeStyle;rounded=0;orthogonalLoop=1;jettySize=auto;html=1;entryX=0.5;entryY=0;entryDx=0;entryDy=0;fontSize=18;" edge="1" parent="1" source="IPqOJJyZI5L9GblSzHMc-26" target="IPqOJJyZI5L9GblSzHMc-27">
          <mxGeometry relative="1" as="geometry" />
        </mxCell>
        <mxCell id="IPqOJJyZI5L9GblSzHMc-26" value="&amp;lt;div&amp;gt;" style="rounded=0;whiteSpace=wrap;html=1;fontSize=18;" vertex="1" parent="1">
          <mxGeometry x="132.5" y="120" width="120" height="50" as="geometry" />
        </mxCell>
        <mxCell id="IPqOJJyZI5L9GblSzHMc-31" value="" style="edgeStyle=orthogonalEdgeStyle;rounded=0;orthogonalLoop=1;jettySize=auto;html=1;fontSize=18;" edge="1" parent="1" source="IPqOJJyZI5L9GblSzHMc-27" target="IPqOJJyZI5L9GblSzHMc-29">
          <mxGeometry relative="1" as="geometry" />
        </mxCell>
        <mxCell id="IPqOJJyZI5L9GblSzHMc-33" style="edgeStyle=orthogonalEdgeStyle;rounded=0;orthogonalLoop=1;jettySize=auto;html=1;exitX=0.5;exitY=1;exitDx=0;exitDy=0;fontSize=18;" edge="1" parent="1" source="IPqOJJyZI5L9GblSzHMc-27" target="IPqOJJyZI5L9GblSzHMc-28">
          <mxGeometry relative="1" as="geometry" />
        </mxCell>
        <mxCell id="IPqOJJyZI5L9GblSzHMc-27" value="&amp;lt;figure&amp;gt;" style="rounded=0;whiteSpace=wrap;html=1;fontSize=18;" vertex="1" parent="1">
          <mxGeometry x="141.25" y="195" width="102.5" height="50" as="geometry" />
        </mxCell>
        <mxCell id="IPqOJJyZI5L9GblSzHMc-28" value="&amp;lt;img&amp;gt;" style="rounded=0;whiteSpace=wrap;html=1;fontSize=18;" vertex="1" parent="1">
          <mxGeometry x="80" y="280" width="100" height="40" as="geometry" />
        </mxCell>
        <mxCell id="IPqOJJyZI5L9GblSzHMc-36" style="edgeStyle=orthogonalEdgeStyle;rounded=0;orthogonalLoop=1;jettySize=auto;html=1;exitX=0.5;exitY=1;exitDx=0;exitDy=0;fontSize=18;" edge="1" parent="1" source="IPqOJJyZI5L9GblSzHMc-29" target="IPqOJJyZI5L9GblSzHMc-34">
          <mxGeometry relative="1" as="geometry" />
        </mxCell>
        <mxCell id="IPqOJJyZI5L9GblSzHMc-29" value="&lt;span style=&quot;background-color: rgb(255, 255, 255);&quot;&gt;&amp;lt;figcaption&amp;gt;&lt;/span&gt;" style="rounded=0;whiteSpace=wrap;html=1;labelBackgroundColor=#D4E1F5;fontSize=18;fillColor=#FFFFFF;" vertex="1" parent="1">
          <mxGeometry x="190" y="280" width="120" height="40" as="geometry" />
        </mxCell>
        <mxCell id="IPqOJJyZI5L9GblSzHMc-34" value="text content" style="rounded=0;whiteSpace=wrap;html=1;labelBackgroundColor=#FFFFFF;fontSize=18;fillColor=#FFFFFF;" vertex="1" parent="1">
          <mxGeometry x="190" y="350" width="120" height="30" as="geometry" />
        </mxCell>
      </root>
    </mxGraphModel>
  </diagram>
</mxfile>
